<svg width="150" height="24" viewBox="0 0 150 24" fill="none" xmlns="http://www.w3.org/2000/svg">
<path d="M20.727 7.50113L21.0527 7.03057L20.1116 6.37919L19.7859 6.84975L20.727 7.50113ZM13.158 16.4257L12.8323 16.8962L13.7734 17.5476L14.0991 17.077L13.158 16.4257ZM6.38192 9.37576H5.80964C5.80964 10.8502 4.63067 12.0335 3.19096 12.0335V12.6058V13.178C5.27588 13.178 6.95419 11.4691 6.95419 9.37576H6.38192ZM3.19096 12.6058V12.0335C1.75124 12.0335 0.572274 10.8502 0.572274 9.37576H0H-0.572274C-0.572274 11.4691 1.10604 13.178 3.19096 13.178V12.6058ZM0 9.37576H0.572274C0.572274 7.90134 1.75124 6.71801 3.19096 6.71801V6.14574V5.57346C1.10604 5.57346 -0.572274 7.28239 -0.572274 9.37576H0ZM3.19096 6.14574V6.71801C4.63067 6.71801 5.80964 7.90134 5.80964 9.37576H6.38192H6.95419C6.95419 7.28239 5.27588 5.57346 3.19096 5.57346V6.14574ZM14.5266 19.2446H13.9543C13.9543 20.7191 12.7754 21.9024 11.3356 21.9024V22.4747V23.0469C13.4206 23.0469 15.0989 21.338 15.0989 19.2446H14.5266ZM11.3356 22.4747V21.9024C9.89593 21.9024 8.71696 20.7191 8.71696 19.2446H8.14469H7.57241C7.57241 21.338 9.25073 23.0469 11.3356 23.0469V22.4747ZM8.14469 19.2446H8.71696C8.71696 17.7702 9.89593 16.5869 11.3356 16.5869V16.0146V15.4423C9.25073 15.4423 7.57241 17.1513 7.57241 19.2446H8.14469ZM11.3356 16.0146V16.5869C12.7754 16.5869 13.9543 17.7702 13.9543 19.2446H14.5266H15.0989C15.0989 17.1513 13.4206 15.4423 11.3356 15.4423V16.0146ZM24.8343 4.03871H24.2621C24.2621 5.51313 23.0831 6.69646 21.6434 6.69646V7.26873V7.841C23.7283 7.841 25.4066 6.13208 25.4066 4.03871H24.8343ZM21.6434 7.26873V6.69646C20.2037 6.69646 19.0247 5.51313 19.0247 4.03871H18.4524H17.8802C17.8802 6.13208 19.5585 7.841 21.6434 7.841V7.26873ZM18.4524 4.03871H19.0247C19.0247 2.5643 20.2037 1.38097 21.6434 1.38097V0.808697V0.236423C19.5585 0.236423 17.8802 1.94535 17.8802 4.03871H18.4524ZM21.6434 0.808697V1.38097C23.0831 1.38097 24.2621 2.5643 24.2621 4.03871H24.8343H25.4066C25.4066 1.94535 23.7283 0.236423 21.6434 0.236423V0.808697ZM20.2564 7.17544L19.7859 6.84975L13.158 16.4257L13.6285 16.7514L14.0991 17.077L20.727 7.50113L20.2564 7.17544ZM5.25752 11.6027L4.81925 11.9707L9.27677 17.2796L9.71505 16.9116L10.1533 16.5436L5.6958 11.2347L5.25752 11.6027Z" fill="white"/>
<path d="M28.828 13.2651C26.7688 12.9741 25.3139 11.6088 25.3139 9.68393C25.3139 7.71429 27.3507 6.25944 29.0294 6.25944C30.4842 6.25944 31.6034 6.86376 32.4091 8.02764L30.1261 9.68393C29.8352 9.41534 29.5218 9.2139 29.0965 9.2139C28.6713 9.2139 28.4251 9.46011 28.4251 9.79584C28.4251 10.1763 28.6937 10.4002 29.6337 10.5121C31.7153 10.7807 33.3044 11.855 33.3044 14.1828C33.3044 16.4881 31.4019 18.0549 28.9622 18.0549C27.2836 18.0549 26.0525 17.473 25.0677 16.3538L27.7536 14.4066C28.0893 14.7647 28.4922 14.899 28.9846 14.899C29.5666 14.899 29.8352 14.5633 29.8352 14.138C29.8352 13.6904 29.5442 13.377 28.828 13.2651ZM46.3162 12.1684V17.8087H43.1603V12.1684C43.1603 10.3554 42.1083 9.43773 40.8102 9.43773C39.4001 9.43773 38.1019 10.3554 38.1019 12.1684V17.8087H34.9236V6.50565H38.1019V7.28903C38.7286 6.57279 40.0492 6.25944 41.0788 6.25944C44.1675 6.25944 46.3162 8.90055 46.3162 12.1684ZM49.9547 4.51362C48.9699 4.51362 48.1194 3.68548 48.1194 2.70066C48.1194 1.80537 48.9699 0.954842 49.9547 0.954842C51.0291 0.954842 51.8572 1.78299 51.8572 2.70066C51.8572 3.68548 51.0291 4.51362 49.9547 4.51362ZM51.5662 6.50565V17.8087H48.388V6.50565H51.5662ZM56.987 23.2028H53.8087V6.50565H56.987V7.28903C57.4794 6.75185 58.7104 6.25944 59.74 6.25944C62.8511 6.25944 65.2908 8.90055 65.2908 12.1236C65.2908 15.3914 62.7616 18.0549 59.6728 18.0549C58.7328 18.0549 57.5913 17.7192 56.987 17.0029V23.2028ZM59.4266 9.43773C57.9494 9.43773 56.8527 10.5568 56.8527 12.146C56.8527 13.7575 57.9494 14.899 59.4266 14.899C60.8815 14.899 62.0677 13.7575 62.0677 12.146C62.0677 10.5568 60.8815 9.43773 59.4266 9.43773ZM75.1568 13.7575L77.686 15.7048C76.7236 17.1372 74.7315 18.0549 72.7171 18.0549C69.315 18.0549 66.5844 15.3914 66.5844 12.1684C66.5844 8.90055 69.2031 6.25944 72.4486 6.25944C75.2463 6.25944 77.395 8.13955 78.0889 10.2435L71.7771 14.7647C72.0681 14.8766 72.3814 14.899 72.7171 14.899C73.6796 14.899 74.642 14.5633 75.1568 13.7575ZM69.8074 12.1684C69.8074 12.437 69.8298 12.6832 69.897 12.907L74.0153 9.9749C73.5677 9.63917 73.0529 9.43773 72.4486 9.43773C70.9937 9.43773 69.8074 10.5792 69.8074 12.1684ZM86.1566 6.30421V9.5944C85.8433 9.48249 85.5076 9.43773 85.1494 9.43773C83.9184 9.43773 82.8665 10.3554 82.8665 12.1684V17.8087H79.6882V6.50565H82.8665V7.28903C83.5603 6.55041 84.5004 6.25944 85.3733 6.25944C85.6419 6.25944 85.8657 6.25944 86.1566 6.30421ZM94.1821 9.43773H91.4962V13.0413C91.4962 14.3171 92.6601 14.899 94.1149 14.899V18.0549C90.7352 18.0549 88.3179 16.0629 88.3179 13.1308V9.43773H86.6169V6.50565H88.3179V5.02842L91.4962 2.72304V6.50565H94.1821V9.43773ZM107.037 12.1684V17.8087H103.881V12.1684C103.881 10.3554 102.829 9.43773 101.531 9.43773C100.121 9.43773 98.8226 10.5792 98.8226 12.1684V17.8087H95.6443V1.1339H98.8226V7.31141C99.4269 6.57279 100.77 6.25944 101.799 6.25944C104.888 6.25944 107.037 8.90055 107.037 12.1684ZM110.675 4.51362C109.691 4.51362 108.84 3.68548 108.84 2.70066C108.84 1.80537 109.691 0.954842 110.675 0.954842C111.75 0.954842 112.578 1.78299 112.578 2.70066C112.578 3.68548 111.75 4.51362 110.675 4.51362ZM112.287 6.50565V17.8087H109.109V6.50565H112.287ZM125.922 12.1684V17.8087H122.766V12.1684C122.766 10.3554 121.714 9.43773 120.416 9.43773C119.006 9.43773 117.708 10.3554 117.708 12.1684V17.8087H114.529V6.50565H117.708V7.28903C118.334 6.57279 119.655 6.25944 120.684 6.25944C123.773 6.25944 125.922 8.90055 125.922 12.1684ZM132.067 13.8247L131.172 14.6752V17.8087H127.994V1.1339H131.172V11.0045L135.984 6.50565H139.923L134.238 11.7879L140.17 17.8087H136.118L132.067 13.8247ZM143.099 14.6752C144.129 14.6752 144.823 15.4362 144.823 16.3986C144.823 17.3163 144.151 18.0997 143.099 18.0997C142.07 18.0997 141.376 17.3163 141.376 16.3986C141.376 15.4362 142.07 14.6752 143.099 14.6752Z" fill="white"/>
</svg>
